<mxfile host="app.diagrams.net" agent="Mozilla/5.0 (Windows NT 10.0; Win64; x64) AppleWebKit/537.36 (KHTML, like Gecko) Chrome/131.0.0.0 Safari/537.36" version="26.0.5">
  <diagram name="Page-1" id="e7e014a7-5840-1c2e-5031-d8a46d1fe8dd">
    <mxGraphModel dx="913" dy="454" grid="1" gridSize="10" guides="1" tooltips="1" connect="1" arrows="1" fold="1" page="1" pageScale="1" pageWidth="850" pageHeight="1400" background="none" math="0" shadow="0">
      <root>
        <mxCell id="0" />
        <mxCell id="1" parent="0" />
        <mxCell id="MgF6TbrkRn9kK3VLW54Z-41" value="Customer" style="swimlane;whiteSpace=wrap;html=1;rounded=0;movable=1;resizable=1;rotatable=1;deletable=1;editable=1;locked=0;connectable=1;" vertex="1" parent="1">
          <mxGeometry x="120" y="160" width="200" height="1080" as="geometry" />
        </mxCell>
        <mxCell id="MgF6TbrkRn9kK3VLW54Z-88" style="edgeStyle=orthogonalEdgeStyle;orthogonalLoop=1;jettySize=auto;html=1;exitX=0.5;exitY=1;exitDx=0;exitDy=0;entryX=0.5;entryY=0;entryDx=0;entryDy=0;" edge="1" parent="MgF6TbrkRn9kK3VLW54Z-41" source="MgF6TbrkRn9kK3VLW54Z-47" target="MgF6TbrkRn9kK3VLW54Z-48">
          <mxGeometry relative="1" as="geometry" />
        </mxCell>
        <mxCell id="MgF6TbrkRn9kK3VLW54Z-47" value="" style="ellipse;fillColor=#000000;strokeColor=none;rounded=0;" vertex="1" parent="MgF6TbrkRn9kK3VLW54Z-41">
          <mxGeometry x="80" y="30" width="30" height="30" as="geometry" />
        </mxCell>
        <mxCell id="MgF6TbrkRn9kK3VLW54Z-48" value="Insert ATM&amp;nbsp;&lt;div&gt;card&lt;/div&gt;" style="html=1;align=center;verticalAlign=top;rounded=1;absoluteArcSize=1;arcSize=10;dashed=0;" vertex="1" parent="MgF6TbrkRn9kK3VLW54Z-41">
          <mxGeometry x="50" y="80" width="90" height="40" as="geometry" />
        </mxCell>
        <mxCell id="MgF6TbrkRn9kK3VLW54Z-64" style="edgeStyle=orthogonalEdgeStyle;orthogonalLoop=1;jettySize=auto;html=1;exitX=0.5;exitY=1;exitDx=0;exitDy=0;entryX=0.5;entryY=0;entryDx=0;entryDy=0;" edge="1" parent="MgF6TbrkRn9kK3VLW54Z-41" source="MgF6TbrkRn9kK3VLW54Z-59" target="MgF6TbrkRn9kK3VLW54Z-62">
          <mxGeometry relative="1" as="geometry" />
        </mxCell>
        <mxCell id="MgF6TbrkRn9kK3VLW54Z-59" value="Take card" style="html=1;align=center;verticalAlign=top;rounded=1;absoluteArcSize=1;arcSize=10;dashed=0;" vertex="1" parent="MgF6TbrkRn9kK3VLW54Z-41">
          <mxGeometry x="80" y="250" width="100" height="30" as="geometry" />
        </mxCell>
        <mxCell id="MgF6TbrkRn9kK3VLW54Z-62" value="" style="ellipse;html=1;shape=endState;fillColor=#000000;strokeColor=#000000;" vertex="1" parent="MgF6TbrkRn9kK3VLW54Z-41">
          <mxGeometry x="115" y="310" width="30" height="30" as="geometry" />
        </mxCell>
        <mxCell id="MgF6TbrkRn9kK3VLW54Z-65" value="Enter pin" style="html=1;align=center;verticalAlign=top;rounded=1;absoluteArcSize=1;arcSize=10;dashed=0;" vertex="1" parent="MgF6TbrkRn9kK3VLW54Z-41">
          <mxGeometry x="80" y="360" width="100" height="30" as="geometry" />
        </mxCell>
        <mxCell id="MgF6TbrkRn9kK3VLW54Z-72" value="Enter amount" style="html=1;align=center;verticalAlign=top;rounded=1;absoluteArcSize=1;arcSize=10;dashed=0;" vertex="1" parent="MgF6TbrkRn9kK3VLW54Z-41">
          <mxGeometry x="80" y="450" width="100" height="30" as="geometry" />
        </mxCell>
        <mxCell id="MgF6TbrkRn9kK3VLW54Z-90" value="valid" style="text;html=1;align=center;verticalAlign=middle;whiteSpace=wrap;rounded=0;" vertex="1" parent="MgF6TbrkRn9kK3VLW54Z-41">
          <mxGeometry x="65" y="170" width="60" height="30" as="geometry" />
        </mxCell>
        <mxCell id="MgF6TbrkRn9kK3VLW54Z-98" value="Take money&lt;div&gt;from slot&lt;/div&gt;&lt;div&gt;&lt;br&gt;&lt;/div&gt;" style="html=1;align=center;verticalAlign=top;rounded=1;absoluteArcSize=1;arcSize=10;dashed=0;" vertex="1" parent="MgF6TbrkRn9kK3VLW54Z-41">
          <mxGeometry x="60" y="600" width="100" height="40" as="geometry" />
        </mxCell>
        <mxCell id="MgF6TbrkRn9kK3VLW54Z-119" style="edgeStyle=orthogonalEdgeStyle;orthogonalLoop=1;jettySize=auto;html=1;exitX=0.5;exitY=1;exitDx=0;exitDy=0;entryX=0.5;entryY=0;entryDx=0;entryDy=0;" edge="1" parent="MgF6TbrkRn9kK3VLW54Z-41" source="MgF6TbrkRn9kK3VLW54Z-117" target="MgF6TbrkRn9kK3VLW54Z-118">
          <mxGeometry relative="1" as="geometry" />
        </mxCell>
        <mxCell id="MgF6TbrkRn9kK3VLW54Z-117" value="&lt;div&gt;Take card&lt;/div&gt;" style="html=1;align=center;verticalAlign=top;rounded=1;absoluteArcSize=1;arcSize=10;fillStyle=auto;" vertex="1" parent="MgF6TbrkRn9kK3VLW54Z-41">
          <mxGeometry x="40" y="960" width="100" height="40" as="geometry" />
        </mxCell>
        <mxCell id="MgF6TbrkRn9kK3VLW54Z-118" value="" style="ellipse;html=1;shape=endState;fillColor=#000000;strokeColor=#000000;" vertex="1" parent="MgF6TbrkRn9kK3VLW54Z-41">
          <mxGeometry x="75" y="1030" width="30" height="30" as="geometry" />
        </mxCell>
        <mxCell id="MgF6TbrkRn9kK3VLW54Z-44" value="Flux Activite" style="text;html=1;align=center;verticalAlign=middle;whiteSpace=wrap;rounded=0;fontStyle=1" vertex="1" parent="1">
          <mxGeometry x="320" y="10" width="160" height="30" as="geometry" />
        </mxCell>
        <mxCell id="MgF6TbrkRn9kK3VLW54Z-45" value="Bank" style="swimlane;whiteSpace=wrap;html=1;rounded=0;" vertex="1" parent="1">
          <mxGeometry x="550" y="160" width="200" height="1080" as="geometry" />
        </mxCell>
        <mxCell id="MgF6TbrkRn9kK3VLW54Z-71" style="edgeStyle=orthogonalEdgeStyle;orthogonalLoop=1;jettySize=auto;html=1;exitX=0.5;exitY=1;exitDx=0;exitDy=0;entryX=0.5;entryY=0;entryDx=0;entryDy=0;" edge="1" parent="MgF6TbrkRn9kK3VLW54Z-45" source="MgF6TbrkRn9kK3VLW54Z-67" target="MgF6TbrkRn9kK3VLW54Z-69">
          <mxGeometry relative="1" as="geometry" />
        </mxCell>
        <mxCell id="MgF6TbrkRn9kK3VLW54Z-67" value="Authorize pin" style="html=1;align=center;verticalAlign=top;rounded=1;absoluteArcSize=1;arcSize=10;dashed=0;" vertex="1" parent="MgF6TbrkRn9kK3VLW54Z-45">
          <mxGeometry x="50" y="360" width="100" height="30" as="geometry" />
        </mxCell>
        <mxCell id="MgF6TbrkRn9kK3VLW54Z-69" value="" style="rhombus;whiteSpace=wrap;html=1;rounded=1;" vertex="1" parent="MgF6TbrkRn9kK3VLW54Z-45">
          <mxGeometry x="85" y="410" width="30" height="30" as="geometry" />
        </mxCell>
        <mxCell id="MgF6TbrkRn9kK3VLW54Z-77" style="edgeStyle=orthogonalEdgeStyle;orthogonalLoop=1;jettySize=auto;html=1;exitX=0.5;exitY=1;exitDx=0;exitDy=0;entryX=0.5;entryY=0;entryDx=0;entryDy=0;" edge="1" parent="MgF6TbrkRn9kK3VLW54Z-45" source="MgF6TbrkRn9kK3VLW54Z-74" target="MgF6TbrkRn9kK3VLW54Z-76">
          <mxGeometry relative="1" as="geometry" />
        </mxCell>
        <mxCell id="MgF6TbrkRn9kK3VLW54Z-74" value="Check balance" style="html=1;align=center;verticalAlign=top;rounded=1;absoluteArcSize=1;arcSize=10;dashed=0;" vertex="1" parent="MgF6TbrkRn9kK3VLW54Z-45">
          <mxGeometry x="50" y="450" width="100" height="30" as="geometry" />
        </mxCell>
        <mxCell id="MgF6TbrkRn9kK3VLW54Z-95" style="edgeStyle=orthogonalEdgeStyle;orthogonalLoop=1;jettySize=auto;html=1;exitX=0;exitY=0.5;exitDx=0;exitDy=0;" edge="1" parent="MgF6TbrkRn9kK3VLW54Z-45" source="MgF6TbrkRn9kK3VLW54Z-76">
          <mxGeometry relative="1" as="geometry">
            <mxPoint x="10" y="560" as="targetPoint" />
          </mxGeometry>
        </mxCell>
        <mxCell id="MgF6TbrkRn9kK3VLW54Z-76" value="" style="rhombus;whiteSpace=wrap;html=1;rounded=1;" vertex="1" parent="MgF6TbrkRn9kK3VLW54Z-45">
          <mxGeometry x="85" y="510" width="30" height="30" as="geometry" />
        </mxCell>
        <mxCell id="MgF6TbrkRn9kK3VLW54Z-103" style="edgeStyle=orthogonalEdgeStyle;orthogonalLoop=1;jettySize=auto;html=1;exitX=1;exitY=0.25;exitDx=0;exitDy=0;entryX=0.5;entryY=0;entryDx=0;entryDy=0;" edge="1" parent="MgF6TbrkRn9kK3VLW54Z-45" source="MgF6TbrkRn9kK3VLW54Z-92" target="MgF6TbrkRn9kK3VLW54Z-99">
          <mxGeometry relative="1" as="geometry" />
        </mxCell>
        <mxCell id="MgF6TbrkRn9kK3VLW54Z-92" value="" style="whiteSpace=wrap;html=1;rounded=1;shadow=0;comic=0;labelBackgroundColor=none;strokeWidth=1;fillColor=#000000;fontFamily=Verdana;fontSize=12;align=center;rotation=0;" vertex="1" parent="MgF6TbrkRn9kK3VLW54Z-45">
          <mxGeometry x="-240" y="560" width="260" height="10" as="geometry" />
        </mxCell>
        <mxCell id="MgF6TbrkRn9kK3VLW54Z-99" value="&lt;div&gt;Debit account&lt;/div&gt;" style="html=1;align=center;verticalAlign=top;rounded=1;absoluteArcSize=1;arcSize=10;fillStyle=auto;" vertex="1" parent="MgF6TbrkRn9kK3VLW54Z-45">
          <mxGeometry x="30" y="600" width="100" height="40" as="geometry" />
        </mxCell>
        <mxCell id="MgF6TbrkRn9kK3VLW54Z-122" value="balance&lt;div&gt;&amp;lt; amount&lt;/div&gt;" style="text;html=1;align=center;verticalAlign=middle;whiteSpace=wrap;rounded=0;" vertex="1" parent="MgF6TbrkRn9kK3VLW54Z-45">
          <mxGeometry x="70" y="780" width="60" height="30" as="geometry" />
        </mxCell>
        <mxCell id="MgF6TbrkRn9kK3VLW54Z-123" value="balance&lt;div&gt;&amp;gt; amount&lt;/div&gt;" style="text;html=1;align=center;verticalAlign=middle;whiteSpace=wrap;rounded=0;" vertex="1" parent="MgF6TbrkRn9kK3VLW54Z-45">
          <mxGeometry x="30" y="490" width="60" height="30" as="geometry" />
        </mxCell>
        <mxCell id="MgF6TbrkRn9kK3VLW54Z-125" value="invalid pin" style="text;html=1;align=center;verticalAlign=middle;whiteSpace=wrap;rounded=0;" vertex="1" parent="MgF6TbrkRn9kK3VLW54Z-45">
          <mxGeometry x="115" y="390" width="60" height="30" as="geometry" />
        </mxCell>
        <mxCell id="MgF6TbrkRn9kK3VLW54Z-46" value="ATM Machine" style="swimlane;whiteSpace=wrap;html=1;startSize=23;rounded=0;" vertex="1" parent="1">
          <mxGeometry x="320" y="160" width="230" height="1080" as="geometry" />
        </mxCell>
        <mxCell id="MgF6TbrkRn9kK3VLW54Z-55" style="edgeStyle=orthogonalEdgeStyle;orthogonalLoop=1;jettySize=auto;html=1;exitX=0.5;exitY=1;exitDx=0;exitDy=0;entryX=0.5;entryY=0;entryDx=0;entryDy=0;" edge="1" parent="MgF6TbrkRn9kK3VLW54Z-46" source="MgF6TbrkRn9kK3VLW54Z-49" target="MgF6TbrkRn9kK3VLW54Z-51">
          <mxGeometry relative="1" as="geometry" />
        </mxCell>
        <mxCell id="MgF6TbrkRn9kK3VLW54Z-49" value="Validate ATM&amp;nbsp;&lt;div&gt;card&lt;/div&gt;" style="html=1;align=center;verticalAlign=top;rounded=1;absoluteArcSize=1;arcSize=10;dashed=0;" vertex="1" parent="MgF6TbrkRn9kK3VLW54Z-46">
          <mxGeometry x="20" y="120" width="100" height="40" as="geometry" />
        </mxCell>
        <mxCell id="MgF6TbrkRn9kK3VLW54Z-56" style="edgeStyle=orthogonalEdgeStyle;orthogonalLoop=1;jettySize=auto;html=1;exitX=0.5;exitY=1;exitDx=0;exitDy=0;" edge="1" parent="MgF6TbrkRn9kK3VLW54Z-46" source="MgF6TbrkRn9kK3VLW54Z-51">
          <mxGeometry relative="1" as="geometry">
            <mxPoint x="69.69230769230762" y="220.30769230769226" as="targetPoint" />
          </mxGeometry>
        </mxCell>
        <mxCell id="MgF6TbrkRn9kK3VLW54Z-58" style="edgeStyle=orthogonalEdgeStyle;orthogonalLoop=1;jettySize=auto;html=1;exitX=0.5;exitY=1;exitDx=0;exitDy=0;" edge="1" parent="MgF6TbrkRn9kK3VLW54Z-46" source="MgF6TbrkRn9kK3VLW54Z-51" target="MgF6TbrkRn9kK3VLW54Z-52">
          <mxGeometry relative="1" as="geometry" />
        </mxCell>
        <mxCell id="MgF6TbrkRn9kK3VLW54Z-51" value="" style="rhombus;whiteSpace=wrap;html=1;rounded=0;" vertex="1" parent="MgF6TbrkRn9kK3VLW54Z-46">
          <mxGeometry x="55" y="190" width="30" height="30" as="geometry" />
        </mxCell>
        <mxCell id="MgF6TbrkRn9kK3VLW54Z-52" value="Eject card" style="html=1;align=center;verticalAlign=top;rounded=1;absoluteArcSize=1;arcSize=10;dashed=0;" vertex="1" parent="MgF6TbrkRn9kK3VLW54Z-46">
          <mxGeometry x="20" y="250" width="100" height="30" as="geometry" />
        </mxCell>
        <mxCell id="MgF6TbrkRn9kK3VLW54Z-89" value="invalid" style="text;html=1;align=center;verticalAlign=middle;whiteSpace=wrap;rounded=0;" vertex="1" parent="MgF6TbrkRn9kK3VLW54Z-46">
          <mxGeometry x="70" y="210" width="60" height="30" as="geometry" />
        </mxCell>
        <mxCell id="MgF6TbrkRn9kK3VLW54Z-108" style="edgeStyle=orthogonalEdgeStyle;orthogonalLoop=1;jettySize=auto;html=1;exitX=0.5;exitY=1;exitDx=0;exitDy=0;" edge="1" parent="MgF6TbrkRn9kK3VLW54Z-46" source="MgF6TbrkRn9kK3VLW54Z-94" target="MgF6TbrkRn9kK3VLW54Z-106">
          <mxGeometry relative="1" as="geometry" />
        </mxCell>
        <mxCell id="MgF6TbrkRn9kK3VLW54Z-94" value="" style="whiteSpace=wrap;html=1;rounded=1;shadow=0;comic=0;labelBackgroundColor=none;strokeWidth=1;fillColor=#000000;fontFamily=Verdana;fontSize=12;align=center;rotation=0;" vertex="1" parent="MgF6TbrkRn9kK3VLW54Z-46">
          <mxGeometry x="30" y="710" width="180" height="10" as="geometry" />
        </mxCell>
        <mxCell id="MgF6TbrkRn9kK3VLW54Z-111" style="edgeStyle=orthogonalEdgeStyle;orthogonalLoop=1;jettySize=auto;html=1;exitX=0.5;exitY=1;exitDx=0;exitDy=0;entryX=0.5;entryY=0;entryDx=0;entryDy=0;" edge="1" parent="MgF6TbrkRn9kK3VLW54Z-46" source="MgF6TbrkRn9kK3VLW54Z-106" target="MgF6TbrkRn9kK3VLW54Z-110">
          <mxGeometry relative="1" as="geometry" />
        </mxCell>
        <mxCell id="MgF6TbrkRn9kK3VLW54Z-106" value="" style="rhombus;whiteSpace=wrap;html=1;rounded=1;" vertex="1" parent="MgF6TbrkRn9kK3VLW54Z-46">
          <mxGeometry x="105" y="760" width="30" height="30" as="geometry" />
        </mxCell>
        <mxCell id="MgF6TbrkRn9kK3VLW54Z-113" style="edgeStyle=orthogonalEdgeStyle;orthogonalLoop=1;jettySize=auto;html=1;exitX=0.5;exitY=1;exitDx=0;exitDy=0;entryX=0.5;entryY=0;entryDx=0;entryDy=0;" edge="1" parent="MgF6TbrkRn9kK3VLW54Z-46" source="MgF6TbrkRn9kK3VLW54Z-110" target="MgF6TbrkRn9kK3VLW54Z-112">
          <mxGeometry relative="1" as="geometry" />
        </mxCell>
        <mxCell id="MgF6TbrkRn9kK3VLW54Z-110" value="&lt;div&gt;Show balance&lt;/div&gt;" style="html=1;align=center;verticalAlign=top;rounded=1;absoluteArcSize=1;arcSize=10;fillStyle=auto;" vertex="1" parent="MgF6TbrkRn9kK3VLW54Z-46">
          <mxGeometry x="70" y="830" width="100" height="40" as="geometry" />
        </mxCell>
        <mxCell id="MgF6TbrkRn9kK3VLW54Z-116" style="edgeStyle=orthogonalEdgeStyle;orthogonalLoop=1;jettySize=auto;html=1;exitX=0.5;exitY=1;exitDx=0;exitDy=0;entryX=0.5;entryY=0;entryDx=0;entryDy=0;" edge="1" parent="MgF6TbrkRn9kK3VLW54Z-46" source="MgF6TbrkRn9kK3VLW54Z-112" target="MgF6TbrkRn9kK3VLW54Z-115">
          <mxGeometry relative="1" as="geometry" />
        </mxCell>
        <mxCell id="MgF6TbrkRn9kK3VLW54Z-112" value="" style="rhombus;whiteSpace=wrap;html=1;rounded=1;" vertex="1" parent="MgF6TbrkRn9kK3VLW54Z-46">
          <mxGeometry x="105" y="910" width="30" height="30" as="geometry" />
        </mxCell>
        <mxCell id="MgF6TbrkRn9kK3VLW54Z-115" value="&lt;div&gt;Eject card&lt;/div&gt;" style="html=1;align=center;verticalAlign=top;rounded=1;absoluteArcSize=1;arcSize=10;fillStyle=auto;" vertex="1" parent="MgF6TbrkRn9kK3VLW54Z-46">
          <mxGeometry x="70" y="960" width="100" height="40" as="geometry" />
        </mxCell>
        <mxCell id="MgF6TbrkRn9kK3VLW54Z-126" value="valid pin" style="text;html=1;align=center;verticalAlign=middle;whiteSpace=wrap;rounded=0;" vertex="1" parent="MgF6TbrkRn9kK3VLW54Z-46">
          <mxGeometry x="60" y="390" width="60" height="30" as="geometry" />
        </mxCell>
        <mxCell id="MgF6TbrkRn9kK3VLW54Z-61" style="edgeStyle=orthogonalEdgeStyle;orthogonalLoop=1;jettySize=auto;html=1;exitX=0;exitY=0.5;exitDx=0;exitDy=0;entryX=1;entryY=0.5;entryDx=0;entryDy=0;" edge="1" parent="1" source="MgF6TbrkRn9kK3VLW54Z-52" target="MgF6TbrkRn9kK3VLW54Z-59">
          <mxGeometry relative="1" as="geometry" />
        </mxCell>
        <mxCell id="MgF6TbrkRn9kK3VLW54Z-66" style="edgeStyle=orthogonalEdgeStyle;orthogonalLoop=1;jettySize=auto;html=1;exitX=0;exitY=0.5;exitDx=0;exitDy=0;entryX=0;entryY=0.75;entryDx=0;entryDy=0;" edge="1" parent="1" source="MgF6TbrkRn9kK3VLW54Z-51" target="MgF6TbrkRn9kK3VLW54Z-65">
          <mxGeometry relative="1" as="geometry">
            <Array as="points">
              <mxPoint x="140" y="365" />
              <mxPoint x="140" y="543" />
            </Array>
          </mxGeometry>
        </mxCell>
        <mxCell id="MgF6TbrkRn9kK3VLW54Z-68" style="edgeStyle=orthogonalEdgeStyle;orthogonalLoop=1;jettySize=auto;html=1;exitX=1;exitY=0.5;exitDx=0;exitDy=0;" edge="1" parent="1" source="MgF6TbrkRn9kK3VLW54Z-65" target="MgF6TbrkRn9kK3VLW54Z-67">
          <mxGeometry relative="1" as="geometry" />
        </mxCell>
        <mxCell id="MgF6TbrkRn9kK3VLW54Z-73" style="edgeStyle=orthogonalEdgeStyle;orthogonalLoop=1;jettySize=auto;html=1;exitX=0;exitY=0.5;exitDx=0;exitDy=0;" edge="1" parent="1" source="MgF6TbrkRn9kK3VLW54Z-69" target="MgF6TbrkRn9kK3VLW54Z-72">
          <mxGeometry relative="1" as="geometry" />
        </mxCell>
        <mxCell id="MgF6TbrkRn9kK3VLW54Z-75" style="edgeStyle=orthogonalEdgeStyle;orthogonalLoop=1;jettySize=auto;html=1;exitX=1;exitY=0.5;exitDx=0;exitDy=0;" edge="1" parent="1" source="MgF6TbrkRn9kK3VLW54Z-72" target="MgF6TbrkRn9kK3VLW54Z-74">
          <mxGeometry relative="1" as="geometry" />
        </mxCell>
        <mxCell id="MgF6TbrkRn9kK3VLW54Z-79" style="edgeStyle=orthogonalEdgeStyle;orthogonalLoop=1;jettySize=auto;html=1;exitX=0.5;exitY=1;exitDx=0;exitDy=0;entryX=0;entryY=0.75;entryDx=0;entryDy=0;" edge="1" parent="1" source="MgF6TbrkRn9kK3VLW54Z-48" target="MgF6TbrkRn9kK3VLW54Z-49">
          <mxGeometry relative="1" as="geometry" />
        </mxCell>
        <mxCell id="MgF6TbrkRn9kK3VLW54Z-102" style="edgeStyle=orthogonalEdgeStyle;orthogonalLoop=1;jettySize=auto;html=1;exitX=0;exitY=0.5;exitDx=0;exitDy=0;entryX=0.5;entryY=0;entryDx=0;entryDy=0;" edge="1" parent="1" source="MgF6TbrkRn9kK3VLW54Z-92" target="MgF6TbrkRn9kK3VLW54Z-98">
          <mxGeometry relative="1" as="geometry" />
        </mxCell>
        <mxCell id="MgF6TbrkRn9kK3VLW54Z-104" style="edgeStyle=orthogonalEdgeStyle;orthogonalLoop=1;jettySize=auto;html=1;exitX=1;exitY=0.5;exitDx=0;exitDy=0;entryX=0.25;entryY=0;entryDx=0;entryDy=0;" edge="1" parent="1" source="MgF6TbrkRn9kK3VLW54Z-98" target="MgF6TbrkRn9kK3VLW54Z-94">
          <mxGeometry relative="1" as="geometry" />
        </mxCell>
        <mxCell id="MgF6TbrkRn9kK3VLW54Z-105" style="edgeStyle=orthogonalEdgeStyle;orthogonalLoop=1;jettySize=auto;html=1;exitX=0;exitY=0.5;exitDx=0;exitDy=0;entryX=0.75;entryY=0;entryDx=0;entryDy=0;" edge="1" parent="1" source="MgF6TbrkRn9kK3VLW54Z-99" target="MgF6TbrkRn9kK3VLW54Z-94">
          <mxGeometry relative="1" as="geometry" />
        </mxCell>
        <mxCell id="MgF6TbrkRn9kK3VLW54Z-109" style="edgeStyle=orthogonalEdgeStyle;orthogonalLoop=1;jettySize=auto;html=1;exitX=1;exitY=0.5;exitDx=0;exitDy=0;entryX=1;entryY=0.5;entryDx=0;entryDy=0;" edge="1" parent="1" source="MgF6TbrkRn9kK3VLW54Z-76" target="MgF6TbrkRn9kK3VLW54Z-106">
          <mxGeometry relative="1" as="geometry">
            <Array as="points">
              <mxPoint x="700" y="685" />
              <mxPoint x="700" y="935" />
            </Array>
          </mxGeometry>
        </mxCell>
        <mxCell id="MgF6TbrkRn9kK3VLW54Z-120" style="edgeStyle=orthogonalEdgeStyle;orthogonalLoop=1;jettySize=auto;html=1;exitX=0;exitY=0.5;exitDx=0;exitDy=0;entryX=1;entryY=0.5;entryDx=0;entryDy=0;" edge="1" parent="1" source="MgF6TbrkRn9kK3VLW54Z-115" target="MgF6TbrkRn9kK3VLW54Z-117">
          <mxGeometry relative="1" as="geometry" />
        </mxCell>
        <mxCell id="MgF6TbrkRn9kK3VLW54Z-121" style="edgeStyle=orthogonalEdgeStyle;orthogonalLoop=1;jettySize=auto;html=1;exitX=1;exitY=0.5;exitDx=0;exitDy=0;entryX=1;entryY=0.5;entryDx=0;entryDy=0;" edge="1" parent="1" source="MgF6TbrkRn9kK3VLW54Z-69" target="MgF6TbrkRn9kK3VLW54Z-112">
          <mxGeometry relative="1" as="geometry">
            <Array as="points">
              <mxPoint x="720" y="585" />
              <mxPoint x="720" y="1085" />
            </Array>
          </mxGeometry>
        </mxCell>
      </root>
    </mxGraphModel>
  </diagram>
</mxfile>
